# xmcd
#
# Track frame offsets:
#	150
#	15089
#	37172
#	53401
#	68427
#	84176
#	96061
#	112180
#	126931
#	149245
#	159089
#	171766
#	198743
#	221645
#
# Disc length: 3198 seconds
#
# Revision: 1
# Processed by: cddbd v1.5.1PL0 Copyright (c) Steve Scherf et al.
# Submitted via: EasyCDDAExtractor 7.0.5.1
#
DISCID=bb0c7c0e
DTITLE=The Smiths - ...Best II
DYEAR=1900
DGENRE=Alternative
TTITLE0=The Boy With The Thorn In His Side
TTITLE1=The Headmaster Ritual
TTITLE2=Heaven Knows I'm Miserable Now
TTITLE3=Ask
TTITLE4=Oscillate Wildly
TTITLE5=Nowhere Fast
TTITLE6=Still Ill
TTITLE7=Bigmouth Strikes Again
TTITLE8=That Joke Isn't Funny Anymore
TTITLE9=Shakespeare's Sister
TTITLE10=Girl Afraid
TTITLE11=Reel Around The Fountain
TTITLE12=Last Night I Dreamt That Somebody Loved Me
TTITLE13=There Is A Light That Never Goes Out
EXTD=
EXTT0=
EXTT1=
EXTT2=
EXTT3=
EXTT4=
EXTT5=
EXTT6=
EXTT7=
EXTT8=
EXTT9=
EXTT10=
EXTT11=
EXTT12=
EXTT13=
PLAYORDER=
